<svg width="20" height="20" viewBox="0 0 20 20" fill="none" xmlns="http://www.w3.org/2000/svg">
<path d="M18.8962 20.0001C19.5057 20.0001 20 19.5059 20 18.8962V1.10383C20 0.494141 19.5057 0 18.8962 0H1.10383C0.494062 0 0 0.494141 0 1.10383V18.8962C0 19.5059 0.494062 20.0001 1.10383 20.0001H18.8962Z" fill="#395185"/>
<path d="M13.7996 20V12.2549H16.3994L16.7886 9.23657H13.7996V7.30938C13.7996 6.43547 14.0423 5.83993 15.2955 5.83993L16.8939 5.83922V3.13961C16.6173 3.10282 15.6686 3.02063 14.5648 3.02063C12.2603 3.02063 10.6827 4.42727 10.6827 7.01055V9.23657H8.07625V12.2549H10.6827V20H13.7996Z" fill="white"/>
</svg>
